<svg version="1.1" xmlns="http://www.w3.org/2000/svg" x="0px" y="0px" width="22px"
	 height="22px" viewBox="0 0 22 22" enable-background="new 0 0 22 22" xml:space="preserve">

	<path fill="white" d="M18.907,14.053c3.025-3.026,3.025-7.932,0-10.957c-3.026-3.026-7.932-3.025-10.958,0
		c-2.65,2.65-2.979,6.743-0.986,9.751l-1.075,1.075l-2.087-2.087l-2.193,2.191l2.087,2.088L2.001,17.81l2.191,2.191l1.696-1.695
		l2.086,2.087l2.193-2.193L8.08,16.113l1.075-1.075C12.164,17.031,16.257,16.703,18.907,14.053z M9.567,4.714
		c2.133-2.132,5.59-2.132,7.722,0c2.132,2.131,2.133,5.588,0,7.721c-2.132,2.132-5.59,2.132-7.722,0
		C7.435,10.303,7.436,6.845,9.567,4.714z"/>

</svg>
