<svg version="1.1" xmlns="http://www.w3.org/2000/svg" x="0px" y="0px" width="22px"
	 height="22px" viewBox="0 0 22 22" enable-background="new 0 0 22 22" xml:space="preserve">

	<path fill="white" d="M2.968,7.954c-3.065,3.065-3.065,8.038,0.002,11.104c3.065,3.065,8.036,3.065,11.104,0
		c2.686-2.687,3.018-6.833,0.998-9.883l2.163-2.162v1.563h3.142V1.651h-0.063l0,0H13.53v3.143h1.481l-2.161,2.161
		C9.803,4.936,5.654,5.268,2.968,7.954z M12.433,17.419c-2.161,2.16-5.663,2.16-7.823,0c-2.161-2.16-2.163-5.665-0.002-7.826
		c2.162-2.159,5.664-2.159,7.825,0.001S14.594,15.259,12.433,17.419z"/>

</svg>

