<svg version="1.1" xmlns="http://www.w3.org/2000/svg" x="0px"
	 y="0px" width="22px" height="22px" viewBox="0 0 22 22" enable-background="new 0 0 22 22" xml:space="preserve">
<path fill="goldenrod" d="M9.423,14.187c0.904,0.765,0.514,1.896-0.048,2.896c-1.063,1.25-1.688,1.688-3.188,2.313
	c1.156,0.875,5.397,0.25,7.532-1.709s4.848-2.486,4.848-2.486s-5.468-1.251-4.275-3.491s1.004-2.767,0.96-4.321
	s-1.072-3.16-2.127-3.763C12.833,3.354,12.966,3.527,13.167,3C9.123,3.327,6.494,5.878,5.75,8.5c-0.427,1.859,0.113,1.95-0.917,2
	C5.125,12.917,8.192,15.165,9.423,14.187z"/>
</svg>
